<svg width="576" height="198" viewBox="0 0 576 198" fill="none" xmlns="http://www.w3.org/2000/svg">
<path d="M63.168 141.957C57.1523 141.957 51.5013 140.772 46.2148 138.402C40.9284 136.033 36.2799 132.797 32.2695 128.695C28.2591 124.503 25.1146 119.717 22.8359 114.34C20.5573 108.871 19.418 103.083 19.418 96.9766C19.418 90.5052 20.5573 84.444 22.8359 78.793C25.1146 73.0508 28.2591 68.0378 32.2695 63.7539C36.3711 59.3789 41.1562 55.9609 46.625 53.5C52.1849 51.0391 58.1549 49.8086 64.5352 49.8086C69.5482 49.8086 74.6523 50.1732 79.8477 50.9023C85.043 51.5404 90.375 52.4974 95.8438 53.7734C96.3906 53.9557 96.9831 57.0091 97.6211 62.9336C97.9857 66.306 98.2591 68.9492 98.4414 70.8633C98.7148 72.7773 98.6237 74.1445 98.168 74.9648C97.7122 75.694 96.6185 76.0586 94.8867 76.0586L92.6992 75.6484C92.2435 74.0078 91.5143 72.276 90.5117 70.4531C89.5091 68.6302 87.9596 66.6706 85.8633 64.5742C83.8581 62.4779 81.0326 60.7917 77.3867 59.5156C73.7409 58.1484 69.6849 57.4648 65.2188 57.4648C48.9036 57.4648 40.7461 69.6784 40.7461 94.1055C40.7461 101.671 41.8398 108.552 44.0273 114.75C46.306 120.857 49.5872 125.688 53.8711 129.242C58.2461 132.797 63.487 134.574 69.5938 134.574C76.3385 134.574 82.1719 132.113 87.0938 127.191C88.5521 125.733 89.6458 124.092 90.375 122.27C91.1953 120.355 91.7878 118.669 92.1523 117.211C92.6081 115.753 93.0182 115.023 93.3828 115.023C97.1198 115.023 99.1706 115.479 99.5352 116.391C99.5352 117.029 99.3073 118.396 98.8516 120.492C98.487 122.497 97.9857 124.73 97.3477 127.191C96.8008 129.561 96.2083 131.658 95.5703 133.48C94.9323 135.212 94.3854 136.169 93.9297 136.352C83.5391 140.089 73.2852 141.957 63.168 141.957ZM137.51 141.957C131.586 141.957 126.162 140.59 121.241 137.855C116.41 135.03 112.536 131.293 109.62 126.645C106.794 121.905 105.381 116.664 105.381 110.922C105.381 105.089 106.794 99.8477 109.62 95.1992C112.536 90.5508 116.41 86.8594 121.241 84.125C126.162 81.2995 131.586 79.8867 137.51 79.8867C143.526 79.8867 148.949 81.2995 153.78 84.125C158.61 86.8594 162.439 90.5508 165.264 95.1992C168.181 99.8477 169.639 105.089 169.639 110.922C169.639 116.664 168.226 121.905 165.401 126.645C162.575 131.293 158.702 135.03 153.78 137.855C148.949 140.59 143.526 141.957 137.51 141.957ZM138.877 134.438C141.429 134.438 143.526 133.572 145.166 131.84C146.807 130.108 147.992 127.829 148.721 125.004C149.541 122.087 149.952 118.988 149.952 115.707C149.952 96.8398 145.166 87.4062 135.596 87.4062C133.044 87.4062 130.948 88.3177 129.307 90.1406C127.758 91.9635 126.618 94.3333 125.889 97.25C125.16 100.167 124.795 103.311 124.795 106.684C124.795 125.186 129.489 134.438 138.877 134.438ZM176.169 141.547C175.804 141.182 175.622 140.225 175.622 138.676C175.622 137.217 175.804 136.488 176.169 136.488C176.898 136.488 177.946 136.306 179.313 135.941C180.68 135.486 181.957 134.984 183.141 134.438C184.326 133.891 184.964 133.435 185.055 133.07C185.693 130.518 186.012 127.055 186.012 122.68V103.949C186.012 98.8451 185.192 95.4271 183.552 93.6953C182.822 92.7839 181.82 92.1458 180.544 91.7812C179.359 91.4167 178.311 91.1888 177.399 91.0977C176.488 90.9154 176.032 90.7331 176.032 90.5508C176.032 87.3607 176.26 85.7656 176.716 85.7656C179.085 85.7656 182.367 85.2643 186.559 84.2617C190.843 83.168 195.355 82.1198 200.095 81.1172L203.239 80.4336C203.695 80.4336 204.151 80.7526 204.606 81.3906C205.062 81.9375 205.29 82.3932 205.29 82.7578C205.199 83.3047 205.062 84.3984 204.88 86.0391C204.789 87.6797 204.697 88.5911 204.606 88.7734C209.164 82.849 214.313 79.8867 220.055 79.8867C224.157 79.8867 228.076 81.5729 231.813 84.9453C231.813 89.6849 231.221 93.194 230.036 95.4727C228.942 97.7513 226.891 98.8906 223.884 98.8906C222.061 98.8906 219.964 97.8424 217.595 95.7461C215.225 93.6497 213.128 92.6016 211.305 92.6016C209.483 92.6016 208.024 93.3307 206.93 94.7891C205.837 96.1562 205.016 97.9336 204.47 100.121C204.014 102.309 203.786 104.587 203.786 106.957V120.766C203.786 126.69 204.105 130.792 204.743 133.07C204.925 133.435 205.563 133.891 206.657 134.438C207.751 134.984 208.936 135.486 210.212 135.941C211.488 136.306 212.354 136.488 212.809 136.488C212.992 136.488 213.128 136.853 213.22 137.582C213.311 138.311 213.356 139.086 213.356 139.906C213.356 140.727 213.265 141.273 213.083 141.547C212.354 141.456 210.804 141.319 208.434 141.137C206.065 141.046 203.558 140.909 200.915 140.727C198.363 140.544 196.358 140.453 194.899 140.453C193.805 140.453 192.302 140.499 190.387 140.59C188.565 140.681 186.651 140.818 184.645 141C182.64 141.091 180.863 141.182 179.313 141.273C177.764 141.456 176.716 141.547 176.169 141.547ZM237.386 141.547C237.021 141.182 236.839 140.225 236.839 138.676C236.839 137.217 237.021 136.488 237.386 136.488C238.115 136.488 239.118 136.306 240.394 135.941C241.761 135.486 243.037 134.984 244.222 134.438C245.498 133.891 246.182 133.435 246.273 133.07C246.911 130.518 247.23 127.055 247.23 122.68V103.949C247.23 98.8451 246.409 95.4271 244.769 93.6953C244.04 92.7839 243.037 92.1458 241.761 91.7812C240.576 91.4167 239.528 91.1888 238.616 91.0977C237.705 90.9154 237.249 90.7331 237.249 90.5508C237.249 87.3607 237.477 85.7656 237.933 85.7656C240.303 85.7656 243.675 85.2643 248.05 84.2617C252.425 83.168 257.392 82.0286 262.952 80.8438L263.636 80.707C263.727 80.6159 263.909 80.5703 264.183 80.5703L264.456 80.4336C264.912 80.4336 265.368 80.7526 265.823 81.3906C266.37 81.9375 266.598 82.3932 266.507 82.7578L265.96 86.9961C265.96 87.4518 266.006 87.7253 266.097 87.8164C266.279 87.8164 266.598 87.5885 267.054 87.1328C272.067 82.3932 278.402 80.0234 286.058 80.0234C291.344 80.0234 295.628 82.2565 298.909 86.7227C302.282 91.1888 303.968 97.9792 303.968 107.094V120.629C303.968 126.645 304.287 130.792 304.925 133.07C305.107 133.435 305.791 133.891 306.976 134.438C308.161 134.984 309.391 135.486 310.667 135.941C312.034 136.306 312.991 136.488 313.538 136.488C313.721 136.488 313.857 136.853 313.948 137.582C314.04 138.311 314.085 139.086 314.085 139.906C314.085 140.727 313.994 141.273 313.812 141.547C313.265 141.547 312.217 141.456 310.667 141.273C309.118 141.182 307.295 141.091 305.198 141C303.193 140.818 301.279 140.681 299.456 140.59C297.633 140.499 296.175 140.453 295.081 140.453C293.623 140.453 291.572 140.544 288.929 140.727C286.377 140.909 283.916 141.046 281.546 141.137C279.176 141.319 277.627 141.456 276.898 141.547C276.533 141.182 276.351 140.225 276.351 138.676C276.351 137.217 276.533 136.488 276.898 136.488C277.627 136.488 278.584 136.306 279.769 135.941C281.045 135.486 282.23 134.984 283.323 134.438C284.508 133.891 285.146 133.435 285.238 133.07C285.876 130.518 286.195 127.055 286.195 122.68V110.375C286.195 103.63 285.238 98.8451 283.323 96.0195C281.501 93.1029 278.538 91.6445 274.437 91.6445C271.611 91.6445 269.333 92.1914 267.601 93.2852C265.869 94.2878 265.003 95.7461 265.003 97.6602V120.629C265.003 126.645 265.322 130.792 265.96 133.07C266.142 133.435 266.78 133.891 267.874 134.438C268.968 134.984 270.153 135.486 271.429 135.941C272.705 136.306 273.571 136.488 274.027 136.488C274.209 136.488 274.346 136.853 274.437 137.582C274.528 138.311 274.573 139.086 274.573 139.906C274.573 140.727 274.482 141.273 274.3 141.547C273.571 141.456 272.021 141.319 269.652 141.137C267.282 141.046 264.775 140.909 262.132 140.727C259.58 140.544 257.575 140.453 256.116 140.453C255.023 140.453 253.519 140.499 251.605 140.59C249.782 140.681 247.868 140.818 245.863 141C243.857 141.091 242.08 141.182 240.53 141.273C238.981 141.456 237.933 141.547 237.386 141.547ZM319.658 141.547C319.293 141.182 319.111 140.408 319.111 139.223C319.111 137.4 319.293 136.488 319.658 136.488C320.387 136.488 321.435 136.352 322.802 136.078C324.17 135.805 325.446 135.44 326.63 134.984C327.815 134.438 328.499 133.936 328.681 133.48C329.228 131.384 329.502 127.374 329.502 121.449V69.7695C329.502 64.6654 329.228 61.1107 328.681 59.1055C328.499 58.5586 327.77 58.0117 326.494 57.4648C325.309 56.8268 324.033 56.3255 322.666 55.9609C321.298 55.5052 320.25 55.2773 319.521 55.2773C319.157 55.2773 318.974 54.457 318.974 52.8164C318.974 51.3581 319.111 50.4922 319.384 50.2188C323.486 50.401 327.223 50.5833 330.595 50.7656C333.968 50.8568 336.93 50.9023 339.482 50.9023C345.407 50.9023 353.063 50.7656 362.451 50.4922C367.19 50.401 371.292 50.3555 374.755 50.3555C378.31 50.2643 381.272 50.2188 383.642 50.2188C383.733 50.6745 384.098 52.5885 384.736 55.9609C385.374 59.3333 386.331 64.1641 387.607 70.4531C387.151 70.9089 386.103 71.1367 384.462 71.1367C383.46 71.1367 382.822 70.8177 382.548 70.1797C381.455 67.8099 379.814 65.7135 377.627 63.8906C375.53 61.9766 373.206 60.4727 370.654 59.3789C368.193 58.194 365.778 57.6016 363.408 57.6016H358.212C352.379 57.6016 349.417 58.194 349.326 59.3789C349.143 60.4727 348.961 61.931 348.779 63.7539C348.688 65.4857 348.642 67.582 348.642 70.043V91.0977C348.642 91.6445 350.602 91.918 354.521 91.918H361.767C367.509 91.918 370.608 91.7357 371.064 91.3711C371.52 90.9154 371.884 89.5938 372.158 87.4062C372.34 85.9479 372.614 84.6263 372.978 83.4414C373.069 82.8034 373.753 82.4844 375.029 82.4844C376.578 82.4844 377.581 82.7122 378.037 83.168V109.008C377.672 109.372 376.715 109.555 375.166 109.555C373.981 109.555 373.252 109.19 372.978 108.461C371.884 104.906 371.155 102.719 370.791 101.898C370.426 101.26 370.153 100.987 369.97 101.078C369.879 101.078 369.606 100.896 369.15 100.531C367.874 99.8021 364.319 99.4375 358.486 99.4375C351.923 99.4375 348.642 99.8477 348.642 100.668V121.723C348.642 126.553 348.961 130.29 349.599 132.934C349.782 133.663 350.556 134.301 351.923 134.848C353.291 135.395 354.795 135.805 356.435 136.078C358.076 136.352 359.352 136.488 360.263 136.488C360.628 136.488 360.81 137.354 360.81 139.086C360.81 139.997 360.719 140.818 360.537 141.547C349.599 141 342.627 140.727 339.619 140.727L319.658 141.547ZM393.727 141.547C393.362 141.182 393.18 140.225 393.18 138.676C393.18 137.217 393.362 136.488 393.727 136.488C394.456 136.488 395.504 136.306 396.871 135.941C398.238 135.486 399.514 134.984 400.699 134.438C401.884 133.891 402.522 133.435 402.613 133.07C403.251 130.518 403.57 127.055 403.57 122.68V68.4023C403.57 66.306 403.479 64.4375 403.297 62.7969C403.206 61.1562 403.069 59.7435 402.887 58.5586C402.522 57.1003 400.152 56.3711 395.777 56.3711H394.547C394 56.3711 393.727 55.4596 393.727 53.6367C393.727 52.0872 394 51.3125 394.547 51.3125C399.833 50.8568 404.801 50.082 409.449 48.9883C414.189 47.8945 417.561 47.0286 419.566 46.3906L420.934 45.9805H421.207C421.572 45.9805 421.936 46.2539 422.301 46.8008C422.665 47.3477 422.893 47.849 422.984 48.3047C421.982 52.5885 421.48 57.1914 421.48 62.1133L421.344 120.629C421.344 126.645 421.663 130.792 422.301 133.07C422.483 133.435 423.167 133.891 424.352 134.438C425.536 134.984 426.767 135.486 428.043 135.941C429.41 136.306 430.367 136.488 430.914 136.488C431.096 136.488 431.233 136.853 431.324 137.582C431.415 138.311 431.461 139.086 431.461 139.906C431.461 140.727 431.37 141.273 431.188 141.547C430.641 141.547 429.592 141.456 428.043 141.273C426.493 141.182 424.671 141.091 422.574 141C420.569 140.818 418.655 140.681 416.832 140.59C415.009 140.499 413.551 140.453 412.457 140.453C411.363 140.453 409.859 140.499 407.945 140.59C406.122 140.681 404.208 140.818 402.203 141C400.198 141.091 398.421 141.182 396.871 141.273C395.322 141.456 394.273 141.547 393.727 141.547ZM438.264 141.547C437.899 141.182 437.717 140.316 437.717 138.949C437.717 137.582 437.899 136.898 438.264 136.898C438.993 136.898 439.95 136.716 441.135 136.352C442.32 135.987 443.459 135.531 444.553 134.984C445.647 134.438 446.239 133.936 446.33 133.48C446.968 130.928 447.288 127.465 447.288 123.09V103.129C447.288 98.0247 446.467 94.6068 444.827 92.875C444.097 91.9635 443.095 91.3255 441.819 90.9609C440.634 90.5964 439.586 90.3685 438.674 90.2773C437.763 90.0951 437.307 89.9128 437.307 89.7305C437.307 87.0872 437.535 85.7656 437.991 85.7656C438.811 85.7656 440.315 85.5833 442.502 85.2188C444.69 84.8542 447.105 84.3984 449.748 83.8516C452.483 83.3047 455.035 82.7578 457.405 82.2109C459.866 81.6641 461.734 81.2083 463.01 80.8438L464.514 80.4336C464.97 80.4336 465.426 80.7526 465.881 81.3906C466.337 81.9375 466.565 82.3932 466.565 82.7578C466.109 86.7682 465.745 89.9128 465.471 92.1914C465.198 94.4701 465.061 95.8828 465.061 96.4297V121.039C465.061 126.234 465.426 130.382 466.155 133.48C466.337 133.845 466.929 134.301 467.932 134.848C469.026 135.395 470.165 135.896 471.35 136.352C472.535 136.716 473.355 136.898 473.811 136.898C474.084 136.898 474.221 137.582 474.221 138.949C474.312 140.316 474.267 141.182 474.084 141.547C473.355 141.456 471.806 141.319 469.436 141.137C467.157 141.046 464.742 140.909 462.19 140.727C459.638 140.544 457.633 140.453 456.174 140.453C454.716 140.453 452.711 140.544 450.159 140.727C447.607 140.909 445.191 141.046 442.913 141.137C440.634 141.319 439.084 141.456 438.264 141.547ZM455.491 66.8984C452.665 66.8984 450.25 65.9414 448.245 64.0273C446.33 62.0221 445.373 59.6068 445.373 56.7812C445.373 53.9557 446.33 51.5859 448.245 49.6719C450.25 47.6667 452.665 46.6641 455.491 46.6641C458.316 46.6641 460.686 47.6667 462.6 49.6719C464.605 51.5859 465.608 53.9557 465.608 56.7812C465.608 59.6068 464.605 62.0221 462.6 64.0273C460.686 65.9414 458.316 66.8984 455.491 66.8984ZM481.571 141.547C481.48 141.182 481.389 140.772 481.298 140.316C481.298 139.861 481.298 139.405 481.298 138.949C481.298 137.309 481.48 136.488 481.845 136.488C484.123 136.124 486.402 135.486 488.68 134.574C491.05 133.572 492.645 132.615 493.466 131.703L508.231 115.434C508.687 114.978 508.915 114.477 508.915 113.93C508.915 113.474 508.733 113.064 508.368 112.699L490.868 90.6875C489.683 89.138 488.179 87.9076 486.356 86.9961C484.624 86.0846 483.029 85.6289 481.571 85.6289C481.115 85.6289 480.888 84.7174 480.888 82.8945C480.888 81.8008 481.024 80.9805 481.298 80.4336C486.949 80.7982 491.324 81.0716 494.423 81.2539C497.522 81.3451 499.39 81.3906 500.028 81.3906C500.484 81.3906 502.261 81.3451 505.36 81.2539C508.459 81.0716 512.834 80.7982 518.485 80.4336C518.759 80.7982 518.895 81.6185 518.895 82.8945C518.895 84.6263 518.667 85.4922 518.212 85.4922C516.936 85.4922 515.569 85.8112 514.11 86.4492C512.743 87.0872 512.059 87.862 512.059 88.7734C512.059 89.2292 512.287 89.776 512.743 90.4141L521.22 100.941C523.954 97.2044 526.096 94.4245 527.645 92.6016C529.195 90.6875 529.97 89.2747 529.97 88.3633C529.97 86.4492 527.144 85.4922 521.493 85.4922C521.128 85.4922 520.946 84.6719 520.946 83.0312C520.946 81.6641 521.128 80.7982 521.493 80.4336C526.871 80.7982 530.972 81.0716 533.798 81.2539C536.714 81.3451 538.401 81.3906 538.856 81.3906C539.312 81.3906 540.907 81.3451 543.641 81.2539C546.376 81.0716 550.158 80.7982 554.989 80.4336C555.263 80.9805 555.399 81.8008 555.399 82.8945C555.399 84.6263 555.263 85.4922 554.989 85.4922C548.609 86.1302 544.553 87.4062 542.821 89.3203L527.645 106C527.098 106.638 526.825 107.139 526.825 107.504C526.825 108.051 527.007 108.507 527.372 108.871L543.778 129.516C546.968 133.526 550.66 135.941 554.852 136.762C555.217 136.762 555.399 137.719 555.399 139.633C555.399 140.544 555.217 141.182 554.852 141.547C551.389 141.365 548.199 141.137 545.282 140.863C542.457 140.59 539.631 140.453 536.805 140.453C533.16 140.453 529.878 140.59 526.962 140.863C524.136 141.137 521.128 141.365 517.938 141.547L517.665 139.906C517.665 137.628 517.847 136.488 518.212 136.488C519.397 136.397 520.718 135.941 522.177 135.121C523.726 134.21 524.501 133.207 524.501 132.113C524.501 131.749 524.273 131.339 523.817 130.883L514.93 120.492L507.138 130.336C506.499 131.247 506.18 132.113 506.18 132.934C506.18 133.845 506.955 134.574 508.505 135.121C509.781 135.577 510.92 135.896 511.923 136.078C513.016 136.169 514.019 136.306 514.93 136.488C515.113 136.488 515.204 137.309 515.204 138.949C515.204 140.316 515.022 141.182 514.657 141.547C514.201 141.456 512.971 141.319 510.966 141.137C508.96 141.046 506.773 140.909 504.403 140.727C502.124 140.544 500.165 140.453 498.524 140.453C495.334 140.453 492.417 140.59 489.774 140.863C487.131 141.137 484.397 141.365 481.571 141.547Z" fill="#E50914"/>
</svg>
